<?xml version="1.0" encoding="utf-8"?>
<!-- Generator: Adobe Illustrator 23.0.3, SVG Export Plug-In . SVG Version: 6.00 Build 0)  -->
<svg version="1.1" id="Layer_1" xmlns="http://www.w3.org/2000/svg" xmlns:xlink="http://www.w3.org/1999/xlink" x="0px" y="0px"
	 viewBox="0 0 892.7 254" style="enable-background:new 0 0 892.7 254;" xml:space="preserve">
<style type="text/css">
	.st0{fill:#DA2832;}
</style>
<title>logoo10px</title>
<g>
	<path class="st0" d="M0,85.5V117c0,3.3,2.7,5.9,5.9,5.9h33.8c-6.9-1.7-13.5-4.1-19.9-7.3C6.7,108.8,1.1,99.6,0,85.5z"/>
	<path class="st0" d="M101.3,77.4c0.6-2.7-1.7-5.7-7.5-7.8C90,68,86,66.8,82.2,65.7c-7.1-2.2-13.2-3.9-16-6.5
		c-4.2-2.8-5.2-9.8-1.9-16.5c4.8-10.2,10.7-20.2,18-28.2C87.9,8.1,94.9,3.1,102.8,0H5.9C2.7,0,0,2.6,0,5.9V77
		c3.1-12.9,9.4-25.9,19.9-39.4c1.9-2.5,4-5.1,6.3-7.8c3.1-4.5,6.3-2.9,3.8,0.8c-3.9,5.2-7.2,10.7-10.1,16.5
		c-6.5,13.1-8.4,26.1,0,37.8c1,1.2,1.9,2.6,3.1,3.7c14.3,12.6,40.5,11.2,59.2,3.3C91,88.4,98,83.1,101.3,77.4z"/>
	<path class="st0" d="M82.2,35.9c-2.3,2.8-2.7,5.3,0,7.3c0.3,0.2,0.6,0.4,1,0.6c13.4,10,36.1-0.2,32.1,24.1
		c-2.2,11-6.7,21.4-13.4,30.4c-5.1,7.4-11.8,13.6-19.7,18c-6.3,3.7-13.4,6-20.6,6.7h52c3.3,0,5.9-2.7,5.9-5.9V19.8
		C112.2,18,88.7,27.6,82.2,35.9z"/>
	<path class="st0" d="M328.7,85.5c1.2-11.6,1.5-13.9,1.2-13.9c-4.8-1.2-8.8-2.3-12.2-2.9c-5.5-0.8-9.6-0.4-12.2,3.3
		c-0.1,1.6,0.2,3.2,0.8,4.7c2.1,4.7,4.8,9.6,11.5,13.9c0.2,0.2,0.4,0.2,0.8,0.4C324.7,93.7,328,90.7,328.7,85.5z"/>
	<path class="st0" d="M289.3,95.1c-7.3,4.5-7.4,6.9-13,8.4c-9.2,2.9-18.7,3.7-18.9,4.1v9.2c0,3.3,2.7,5.9,5.9,5.9H313
		C300.7,117.8,295.8,89.6,289.3,95.1z"/>
	<path class="st0" d="M321.5,122.7h49.9c3.3,0,5.9-2.7,5.9-5.9c0,0,0,0,0,0v-3.5c-10.5,0-15.1-1-27.7-11.8
		C340.4,97.6,334.3,122.9,321.5,122.7z"/>
	<path class="st0" d="M317.7-0.2h-54.3c-3.3,0-5.9,2.6-5.9,5.9V79c19.1-2.7,32.1-15.1,38.8-20.8c6.1-5.5,11.8-14.1,21.4-17.6
		c1.9-0.7,3.9-1.3,5.9-1.6c5.7-1.2,19.5,2.9,16.6,6.3c-3.6,11.2-5.2,14.1-1.9,19.2c6.7,10.6,23.5,19.6,39,20.2v-79
		c0-3.3-2.7-5.9-5.9-5.9c0,0,0,0,0,0H317.7z"/>
	<path class="st0" d="M586,106.8c-1.9-1-3.8-1.8-5.6-2.6c-9.9-4.1-7.8-4.3-18.9,0c-7.8,3.1-19.9,8.6-46.4,10v2.9
		c0,3.3,2.7,5.9,5.9,5.9h86.6c-0.6-0.6-1.2-1.4-1.7-2C600.3,115,593.5,110.1,586,106.8z"/>
	<path class="st0" d="M586,49.2c-0.9-3.4-2.7-6.4-5.2-8.8c-4.6-6.7-13.6,1.2-19.1,7.3c-3.6,3.9-6.1,7.5-6.5,10.2
		c-1.3,13.9,20.1,12.9,30.8,5.3c0.3-0.3,0.6-0.6,1-0.8C586.7,62.5,587.7,56,586,49.2z"/>
	<path class="st0" d="M544.5,82.1c-1.1-5.7,2.3-51.4,35.9-66.8c-2.3-1.8-1.1-2.5,5.6-14.9V0l-65,0.2c-3.3,0-5.9,2.7-5.9,5.9v78.8
		C515,84.9,536.3,85.3,544.5,82.1z"/>
	<path class="st0" d="M619.8,86.6c2.3-1,1.2-5.5-1.3-11.4c-3.1-7.3-8.6-16.7-12.6-23.3c-2.1-3.5-3.8-6.1-4.2-7.3
		c-3.4-6.9-3.8-1.4-3.8,2.9c-0.1,3.3-0.7,6.6-1.7,9.8c-3.8,11-9,15.7-10.1,18.4c-0.4,0.6-0.4,1.4,0,2c0.4,0.8,1.7,1.6,4,2.5
		c5.1,2.5,10.4,4.6,15.9,6.3c5.2,1.4,9.9,2,12.6,0.8C618.9,87.1,619.3,86.9,619.8,86.6z"/>
	<path class="st0" d="M618.5,0.2h-27.7c5.9,5.7,10.9,10.8,15.1,15.5c4.6,4.9,8.9,10.2,12.6,15.9c8.6,12.5,12.4,23.5,16.6,37.2V6.1
		c0-3.3-2.6-5.9-5.9-5.9c0,0,0,0,0,0L618.5,0.2z"/>
	<path class="st0" d="M618.5,120c-0.8,1-1.5,1.9-2.5,3.1h13.2c3.3,0,5.9-2.7,5.9-5.9c0,0,0,0,0,0V85.8
		C632.8,86.2,634.5,98.6,618.5,120z"/>
	<path class="st0" d="M189,111.5c-14.2-1.8-19.3-8.4-24.3-20.6c-5.9-23.1-1-28.2-11.1-80c-1.2-4.7,0.6-5.3,5.9-11.2h-25.2
		c-3.3,0-5.9,2.6-5.9,5.9c0,0,0,0,0,0v111.1c0,3.3,2.7,5.9,5.9,5.9c0,0,0,0,0,0h108c3.3,0,5.9-2.7,5.9-5.9v-7.6
		c-13.8,2.2-27.8,3.3-41.8,3.3C200.6,112.6,194.8,112.3,189,111.5z"/>
	<path class="st0" d="M206.4-0.2h-41.9c0.4,1,4.6,4.9,5.5,10.6c4.2,22,0,57.2,10.5,67.2c4.2,5.3,11.7,7.3,25.8,7.1
		c1.9-0.2,4-0.2,6.3-0.4c17.6-0.8,35.7-2.7,35.7-3.5v-75c0-3.3-2.6-5.9-5.9-5.9c0,0,0,0,0,0H206.4z"/>
	<path class="st0" d="M457.5,92.5c-0.4-0.6-0.8-1.4-1.2-2c-2.9-5.1-4-4.9-7.4-1.2c-1.9,2.3-7.1,5.7-12.4,9.8
		c-15.9,12-36.5,14.3-50.1,14.5v3.3c0,3.3,2.7,5.9,5.9,5.9h108c3.3,0,5.9-2.7,5.9-5.9c0,0,0,0,0,0v-2.1
		C506.7,112.5,471.5,115.2,457.5,92.5z"/>
	<path class="st0" d="M456.4,0h-64c-3.3,0-5.9,2.6-5.9,5.9v78.9c12.8-1.2,45.9,4.9,68-35.3c0.5-1.4,1.2-2.8,1.9-4.1
		c4.2-5.9,6.3,8.6,6.7,16.8c10.5,20.4,24.3,22.2,43.2,22.4V5.9c0-3.3-2.6-5.9-5.9-5.9H456.4z M456.8,25.5l-0.4-0.2
		c-3.6-2.6-7-5.5-10.1-8.6c-2.7-2.7-3.6-3.7,0.8-8.6c1.1-1.2,6.7-6.5,9.4-6.7c0.5-0.2,1.1,0,1.3,0.5c0,0,0,0,0,0.1
		c3.8,3.9,6.5,7.3,11.3,12.3C465.7,17.4,460.6,22.9,456.8,25.5z"/>
	<path class="st0" d="M650,122.9h50.3c-1.9-36.7-1.5-44.3-7.3-76.2c-4.8-26.1-5.5-22.9-2.3-30.2c2.7-3.1,10.7-15.3,13-16.5H650
		c-3.3,0-5.9,2.7-5.9,5.9c0,0,0,0,0,0v111C644,120.2,646.7,122.9,650,122.9C650,122.9,650,122.9,650,122.9z"/>
	<path class="st0" d="M708.1,0c6.7,16.1,11.3,60.8,4.6,100.5c-2.3,10.6-4.2,16.1-8.2,22.3h53.3c3.3,0,5.9-2.7,5.9-5.9c0,0,0,0,0,0
		V5.9c0-3.3-2.7-5.9-5.9-5.9c0,0,0,0,0,0H708.1z"/>
	<path class="st0" d="M794.3,0h-15.5c-3.3,0-5.9,2.7-5.9,5.9c0,0,0,0,0,0v88.4c7.1,2,3.2,0.6,7.4,1.8c4.4,0.8,9.2,1.6,13.9,2.2
		c23.5,2.7,50.6,0.4,74.3-26.5c9.8-14.5,8.2-17.8,1.2-28.4c-5.5-8.4-6.1-6.9-13-14.9c-5.9-3.1,7.5-16.5,13.6-23.5
		c11.8,7.8,17.2,29.4,16.1,48.8c0.2,16.5-5.3,45.7-50.7,69.2h51c3.3,0,5.9-2.7,5.9-5.9c0,0,0,0,0,0V5.9c0-3.3-2.6-5.9-5.9-5.9H794.3
		z"/>
	<path class="st0" d="M784.3,106.4c-5.7-3.9-10.1-7.3-11.5-8.8V117c0,3.3,2.7,5.9,5.9,5.9l0,0h37.1c-7.5-2.9-14.7-6.4-21.6-10.4
		C790.5,110.2,787.2,108.2,784.3,106.4z"/>
</g>
<polygon class="st0" points="473.8,136.1 473.8,136.1 473.8,136.1 "/>
<g>
	<g>
		<path class="st0" d="M382,161.3c-0.4,0.6-0.8,1-1.1,1.6c-5.2,6.7-9.4,13.9-3.3,15.7c1.4,0.6,2.9,0.9,4.4,0.8c2,0.2,4.1,0,6.1-0.4
			c3.2-0.6,6.3-1.5,9.4-2.8c7-2.9,12.6-7.3,10.5-12.1c-1.9-5.1-5.9-7.4-10.5-8c-3.2-0.4-6.4,0.1-9.4,1.4
			C385.8,158.2,383.7,159.6,382,161.3z"/>
		<path class="st0" d="M361.1,190.1c0.5-9,2.3-17.9,5.2-26.5c4.6-13.3,9.9-22.9,15.7-28.2c1.8-1.5,3.9-2.8,6.1-3.7
			c0.5-0.1,0.9-0.2,1.3-0.4h-60c-3.3,0-5.9,2.7-5.9,5.9c0,0,0,0,0,0v39.9C333.8,185.6,346.6,196.2,361.1,190.1z"/>
		<path class="st0" d="M433,131.3h-30.2c10.7,2.9,15.3,10.6,17.8,17.1c2.7,8.6,1.5,16.1-2.3,23.3c-6.7,12.3-14.3,21.9-20.8,28
			c-2.7,2.9-5.8,5.3-9.4,7.1c-0.4,0.2-0.9,0.4-1.3,0.4c0.2,0.4,0.6,1.4,1.3,2.9c2.8,4.9,5.9,9.6,9.4,14.1c3,4,6.6,7.5,10.7,10.4
			c12.2,7.8,4.2-15.3,2.1-28.4c-2.5-15.7,2.9-14.5,9.8-13.9c3.3,0.4,8,2.1,13,3.3c3.6,0.8,6.9,2.3,10.5,3.2v-61.6
			c0-3.3-2.7-5.9-5.9-5.9c0,0,0,0,0,0H433z"/>
		<path class="st0" d="M388,245c-1.9-1.8-4-3.5-6.1-5.7c-5.3-5.4-9.3-11.8-12-18.8c-3.1-6.5-1.1-6.9-10.3-3.7
			c-21.8,5.3-36.1-11-36.1-10.8v42.3c0,3.3,2.7,5.9,5.9,5.9l0,0h72.4c-1.1-0.8-2.7-1.6-4.4-2.7C394.2,249.6,391,247.4,388,245z"/>
		<path class="st0" d="M429.5,221.3c-6.5-2.5-7.6,0.2-6.7,8.5c0.8,5.3,3.3,18,8.8,24.5h5.9c3.3,0,5.9-2.6,5.9-5.9v-19.9
			c-4.5-2.2-8-4.4-10.5-5.4C431.8,222.4,430.7,221.8,429.5,221.3z"/>
	</g>
	<g>
		<path class="st0" d="M63,216.6v31.5c0,3.3,2.7,5.9,5.9,5.9h33.8c-6.9-1.7-13.5-4.1-19.9-7.3C69.6,240,64.1,230.7,63,216.6z"/>
		<path class="st0" d="M145.5,167c-2.3,2.8-2.7,5.3,0,7.3c0.3,0.2,0.6,0.4,1,0.6c13.4,10,36.1-0.2,32.1,24.1
			c-2.1,11-6.7,21.4-13.4,30.4c-5.2,7.4-11.9,13.5-19.7,18c-6.4,3.7-13.5,6-20.8,6.7h52.2c3.3,0,5.9-2.7,5.9-5.9V151
			C175.5,149.2,152,158.8,145.5,167z"/>
		<path class="st0" d="M164.4,208.6c0.8-2.7-1.5-5.7-7.3-7.8c-3.8-1.6-8-2.7-11.7-3.9c-7.1-2.1-13.2-3.9-16-6.5
			c-4.2-2.8-5.2-9.8-1.9-16.5c4.8-10.2,10.7-20.2,18-28.2c5.6-6.4,12.7-11.4,20.6-14.5H68.9c-3.3,0-5.9,2.7-5.9,5.9v71.1
			c3.1-12.9,9.4-25.9,19.9-39.4c1.9-2.5,4-5.1,6.3-7.8c3.1-4.5,6.3-2.9,3.6,0.8c-3.7,5.2-7,10.7-9.9,16.5c-6.5,13.1-8.4,26.1,0,37.8
			c0.9,1.2,1.9,2.6,3,3.7c14.3,12.6,40.9,11.2,59.6,3.3C154.3,219.5,161.4,214.3,164.4,208.6z"/>
	</g>
	<g>
		<path class="st0" d="M196.7,230.1c-1.9-2-5-4.5-5-5.3v23.5c0,3.3,2.7,5.9,5.9,5.9h40.7c-5.2,0-14.3-4.9-23.3-10.6
			C208.7,239.5,202.6,235,196.7,230.1z"/>
		<path class="st0" d="M230,227.2c13-1.4,27.7-7.6,39.9-16.1c9-6.3,16.6-13.7,20.8-21.2c0.5-0.8,1-1.7,1.3-2.5
			c0.8-1.6,1.3-4.1-1.3-10.6c-0.2-0.4-0.2-0.6-0.4-1c-2.9-5.5-21.2-23.7-14.7-30.2c3.5-4.9,7.7-9.2,10.3-14.3h-88.3
			c-3.3,0-5.9,2.7-5.9,5.9c0,0,0,0,0,0v85.8c7.5,2.6,15.4,4,23.3,4.3C220,227.6,225,227.5,230,227.2z"/>
		<path class="st0" d="M299.6,196c-1.7,3.5-4.6,10.2-8.8,17.4c-3.6,6.4-7.9,12.5-12.8,18c-2.5,2.7-5.2,5.3-8,7.6
			c-7.3,5.6-15,10.7-23,15.1h58.9c3.3,0,5.9-2.7,5.9-5.9v-47.2c-1.9-2.2-3.4-3.5-4.6-4.9C300.7,190.1,301.8,191,299.6,196z"/>
		<path class="st0" d="M290.8,131.3h-2.1c0.6,0,1.3,1.4,2.1,3.1c0.4,0.8,0.8,1.8,1.1,2.5c2.9,5.3,12.2,22.1,19.9,30.4v-30.1
			c0-3.3-2.6-5.9-5.9-5.9c0,0,0,0,0,0H290.8z"/>
	</g>
	<g>
		<path class="st0" d="M652.5,216.6c1.2-11.6,1.5-13.9,1.2-13.9c-4.8-1.2-8.8-2.4-12.2-2.9c-5.5-0.8-9.6-0.4-12.2,3.3
			c-0.1,1.6,0.2,3.2,0.8,4.7c2.1,4.7,4.8,9.6,11.5,13.9c0.2,0.2,0.4,0.2,0.8,0.4C648.5,224.8,651.8,221.9,652.5,216.6z"/>
		<path class="st0" d="M613.2,226.2c-7.3,4.5-7.5,6.9-13,8.4c-9.2,2.9-18.7,3.7-18.9,4.1v9.2c0,3.3,2.7,5.9,5.9,5.9h49.7
			C624.4,249,619.7,220.7,613.2,226.2z"/>
		<path class="st0" d="M645.3,253.8h49.9c3.3,0,5.9-2.6,5.9-5.9c0,0,0,0,0,0v-3.5c-10.5,0-15.1-1-27.7-11.8
			C664.2,228.8,658.1,254,645.3,253.8z"/>
		<path class="st0" d="M641.5,131h-54.3c-3.3,0-5.9,2.7-5.9,5.9v73.3c19.1-2.7,32.1-15.1,38.8-20.8c6.1-5.5,11.8-14.1,21.4-17.6
			c1.9-0.7,3.9-1.3,5.9-1.6c5.7-1.2,19.5,2.9,16.6,6.3c-3.6,11.2-5.2,14.1-1.9,19.2c6.7,10.6,23.5,19.6,39,20.2v-78.9
			c0-3.3-2.7-5.9-5.9-5.9c0,0,0,0,0,0H641.5z"/>
	</g>
	<g>
		<path class="st0" d="M739.3,213.3c-1-5.7,2.3-51.4,36.1-66.8c-2.3-1.8-1.3-2.5,5.3-14.9l0.2-0.4h-0.2l-65,0.2
			c-3.3,0-5.9,2.7-5.9,5.9c0,0,0,0,0,0V216C709.9,216,731.1,216.4,739.3,213.3z"/>
		<path class="st0" d="M780.8,238c-1.9-1-3.8-1.8-5.3-2.6c-10.1-4.1-8-4.3-19.1,0c-7.8,3.1-19.9,8.6-46.4,10v2.9
			c0,3.3,2.7,5.9,5.9,5.9h86.6c-0.6-0.6-1.2-1.4-1.7-2C795.1,246.1,788.3,241.2,780.8,238z"/>
		<path class="st0" d="M780.8,180.3c-0.9-3.4-2.7-6.4-5.2-8.8c-4.6-6.7-13.6,1.2-19.1,7.3c-3.6,3.9-6.1,7.4-6.5,10.2
			c-1.3,13.9,20.1,12.9,30.8,5.3c0.3-0.3,0.6-0.6,1-0.8C781.5,193.7,782.7,187.2,780.8,180.3z"/>
		<path class="st0" d="M813.3,251.1c-0.8,1-1.5,1.9-2.5,3.1h13c3.3,0,5.9-2.7,5.9-5.9V217C827.6,217.4,829.3,229.7,813.3,251.1z"/>
		<path class="st0" d="M814.6,217.8c2.3-1,1.3-5.5-1.3-11.4c-3.1-7.3-8.6-16.7-12.6-23.3c-2.1-3.5-3.8-6.1-4.2-7.3
			c-3.4-6.9-3.8-1.4-3.8,2.9c0,3.3-0.6,6.7-1.7,9.8c-3.8,11.2-9,15.7-10.1,18.4c-0.4,0.6-0.4,1.4,0,2c0.4,0.8,1.7,1.6,4,2.5
			c5.1,2.5,10.4,4.6,15.9,6.3c5.4,1.4,9.9,2,12.6,0.8C813.7,218.3,814.1,218,814.6,217.8z"/>
		<path class="st0" d="M813.3,131.3h-27.7c5.9,5.7,10.9,10.8,15.1,15.5c4.7,5,8.9,10.4,12.6,16.1c8.6,12.7,12.2,23.7,16.4,37.6
			v-63.3c0-3.3-2.6-5.9-5.9-5.9c0,0,0,0,0,0H813.3z"/>
	</g>
	<g>
		<path class="st0" d="M554.7,234.6c-5.9-5.9-5.4,0.4-6.1,3.1c-1.7,7.8-9.4,8-16.6,5.9c-1.8-0.5-3.5-1.2-5.2-2
			c-6.9-2.9-11.7-5.9-19.5-5.9c-3.6,0.1-7.2,0.6-10.7,1.6c-5.4,2.2-17.4,10.2-29.6,4.7c-1.9-1.2-5.2-4.4-7.1-5.8
			c-2.5,0-5-3.5-7.5-3.5V248c0,3.3,2.6,5.9,5.9,5.9c0,0,0,0,0,0h108c3.3,0,5.9-2.7,5.9-5.9v-7.3
			C568.4,240.9,559.8,239.1,554.7,234.6z"/>
		<path class="st0" d="M566.3,131h-47.1l1.3,0.6l11.3,12.3c-3.3,3.1-8.4,8.6-12.2,11.2l-10.5-8.8c-2.7-2.8-3.6-3.7,0.8-8.6
			c1.1-1.2,6.7-6.4,9.4-6.7h-60.9c-3.3,0-5.9,2.7-5.9,5.9c0,0,0,0,0,0v65.9c8.4,4.1,16.2,3.7,21.4-4.7c1.5-5.1,9.6-9.6,5.4-1.4
			c-10.7,19.2,13.4,18.8,28.1,8.4c5-3.5,8.8-8.2,9.7-13.7c0.8-5.1,5-7,4.6-1c-0.2,8,2.9,17.1,10.3,20.4c1.4,0.6,2.9,1,4.4,1.2
			c5.7,0.6,13.8-8.2,14-18.8c-0.6-3.7,3.4-5.9,4.6,0.6c1.7,5.5,10.3,17.2,17.4,16.1v-72.9C572.3,133.6,569.6,131,566.3,131z
			 M507,175.8l-10.5-8.8c-2.7-2.8-3.6-3.7,0.8-8.6c1.1-1.2,6.7-6.5,9.4-6.7l1.3,0.6l11.3,12.3C516,167.8,510.8,173.3,507,175.8z
			 M532.6,175.8l-10.5-8.8c-2.7-2.8-3.6-3.7,0.8-8.6c1.1-1.2,6.7-6.5,9.4-6.7l1.3,0.6l11.3,12.3
			C541.6,167.8,536.5,173.3,532.6,175.8L532.6,175.8z"/>
	</g>
</g>
</svg>
