<svg xmlns="http://www.w3.org/2000/svg" viewBox="0 0 1668.03 123.28"><defs><style>.cls-1{fill:#da2832;}</style></defs><title>logoo10px</title><g id="Layer_2" data-name="Layer 2"><g id="Layer_1-2" data-name="Layer 1"><path class="cls-1" d="M319,30.38c-.38.59-.77,1-1.15,1.57-5.16,6.66-9.36,13.91-3.25,15.68a10,10,0,0,0,4.4.78,21.76,21.76,0,0,0,6.11-.39,47.34,47.34,0,0,0,9.37-2.75C341.52,42.34,347.06,38,345,33.12c-1.91-5.09-5.93-7.44-10.51-8a17.48,17.48,0,0,0-9.37,1.37A15.72,15.72,0,0,0,319,30.38Z"/><path class="cls-1" d="M298.14,59.19a102.64,102.64,0,0,1,5.16-26.46C307.88,19.4,313.23,9.8,319,4.51A23.19,23.19,0,0,1,325.08.78a9.82,9.82,0,0,0,1.34-.39h-60a5.92,5.92,0,0,0-5.92,5.93V46.25C270.81,54.68,283.61,65.27,298.14,59.19Z"/><path class="cls-1" d="M370,.39H339.8C350.5,3.33,355.09,11,357.57,17.44c2.68,8.63,1.53,16.08-2.29,23.33-6.69,12.34-14.33,21.95-20.83,28a32.15,32.15,0,0,1-9.37,7.06,3.37,3.37,0,0,1-1.33.39c.19.39.57,1.37,1.33,2.94a120.45,120.45,0,0,0,9.37,14.11,48.49,48.49,0,0,0,10.7,10.39c12.23,7.84,4.2-15.29,2.1-28.42-2.48-15.68,2.87-14.5,9.75-13.91,3.25.39,8,2.15,13,3.33,3.64.78,6.86,2.25,10.52,3.21V6.32A5.93,5.93,0,0,0,374.58.39Z"/><path class="cls-1" d="M325.08,114.07c-1.91-1.77-4-3.53-6.11-5.68a54.31,54.31,0,0,1-12-18.82c-3.06-6.47-1.15-6.86-10.32-3.72-21.79,5.29-36.12-11-36.12-10.78v42.29a5.92,5.92,0,0,0,5.92,5.92h72.43c-1.14-.78-2.67-1.57-4.39-2.74A80.91,80.91,0,0,1,325.08,114.07Z"/><path class="cls-1" d="M366.55,90.31c-6.49-2.54-7.64.24-6.68,8.47.76,5.29,3.25,18,8.79,24.5h5.92a5.93,5.93,0,0,0,5.93-5.92V97.44c-4.5-2.16-8-4.38-10.52-5.36A27.87,27.87,0,0,0,366.55,90.31Z"/><path class="cls-1" d="M0,85.65v31.51a5.92,5.92,0,0,0,5.92,5.92H39.75a100.21,100.21,0,0,1-19.87-7.25C6.69,109,1.15,99.76,0,85.65Z"/><path class="cls-1" d="M82.56,36.06c-2.29,2.75-2.67,5.3,0,7.26a4,4,0,0,0,1,.58c13.37,10,36.12-.19,32.1,24.11a75.54,75.54,0,0,1-13.37,30.38,61.6,61.6,0,0,1-19.69,18,50.65,50.65,0,0,1-20.83,6.66h52.18a5.92,5.92,0,0,0,5.92-5.92V20C112.57,18.23,89.06,27.83,82.56,36.06Z"/><path class="cls-1" d="M101.48,77.61c.77-2.74-1.53-5.68-7.26-7.84-3.82-1.56-8-2.74-11.66-3.92-7.07-2.15-13.19-3.92-16-6.46-4.21-2.75-5.16-9.8-1.91-16.47,4.77-10.19,10.7-20.18,18-28.22A53.94,53.94,0,0,1,103.2.2H5.92A5.92,5.92,0,0,0,0,6.12v71.1C3.06,64.29,9.36,51.35,19.88,37.83c1.91-2.55,4-5.1,6.3-7.84,3.06-4.51,6.31-2.94,3.63.78a125.87,125.87,0,0,0-9.93,16.46c-6.5,13.14-8.41,26.07,0,37.83.95,1.18,1.91,2.55,3.05,3.72,14.34,12.55,40.9,11.18,59.63,3.34C91.35,88.59,98.42,83.3,101.48,77.61Z"/><path class="cls-1" d="M775.34,85.65v31.51a5.93,5.93,0,0,0,5.93,5.92H815.1a100.33,100.33,0,0,1-19.88-7.25C782,109,776.49,99.76,775.34,85.65Z"/><path class="cls-1" d="M876.63,77.61c.58-2.74-1.72-5.68-7.45-7.84-3.82-1.56-7.84-2.74-11.66-3.92-7.07-2.15-13.18-3.92-16-6.46-4.21-2.75-5.16-9.8-1.91-16.47,4.78-10.19,10.7-20.18,18-28.22A54,54,0,0,1,878.16.2H781.27a5.93,5.93,0,0,0-5.93,5.92v71.1c3.06-12.93,9.37-25.87,19.88-39.39,1.91-2.55,4-5.1,6.31-7.84,3.06-4.51,6.3-2.94,3.82.78a110.57,110.57,0,0,0-10.13,16.46c-6.5,13.14-8.41,26.07,0,37.83,1,1.18,1.91,2.55,3.06,3.72,14.33,12.55,40.51,11.18,59.24,3.34C866.31,88.59,873.38,83.3,876.63,77.61Z"/><path class="cls-1" d="M857.52,36.06c-2.29,2.75-2.67,5.3,0,7.26a4.24,4.24,0,0,0,1,.58c13.38,10,36.12-.19,32.11,24.11a75.69,75.69,0,0,1-13.38,30.38,59.51,59.51,0,0,1-19.69,18,50.75,50.75,0,0,1-20.64,6.66h52a5.92,5.92,0,0,0,5.92-5.92V20C887.53,18.23,864,27.83,857.52,36.06Z"/><path class="cls-1" d="M133.78,99.17c-1.91-2-5-4.5-5-5.29v23.48a5.92,5.92,0,0,0,5.92,5.92h40.71c-5.16,0-14.33-4.9-23.31-10.58A196.66,196.66,0,0,1,133.78,99.17Z"/><path class="cls-1" d="M167,96.23c13-1.37,27.71-7.64,39.94-16.07,9-6.27,16.63-13.72,20.84-21.17a17.29,17.29,0,0,0,1.34-2.54c.76-1.57,1.33-4.12-1.34-10.59-.2-.39-.2-.59-.39-1-2.86-5.49-21.21-23.71-14.71-30.18C216.15,9.8,220.35,5.49,223,.39h-88.3a5.92,5.92,0,0,0-5.92,5.93v85.8a80.64,80.64,0,0,0,23.32,4.31A125.45,125.45,0,0,0,167,96.23Z"/><path class="cls-1" d="M236.6,65.07c-1.72,3.53-4.59,10.19-8.79,17.44a103,103,0,0,1-12.81,18,78.21,78.21,0,0,1-8,7.64A179.14,179.14,0,0,1,184,123.28h58.87a5.92,5.92,0,0,0,5.92-5.92V70.17c-1.91-2.16-3.44-3.53-4.59-4.9C237.74,59.19,238.89,60,236.6,65.07Z"/><path class="cls-1" d="M227.81.39H225.7c.58,0,1.34,1.37,2.11,3.14.38.78.76,1.76,1.14,2.55,2.87,5.29,12.23,22.14,19.88,30.38V6.32A5.92,5.92,0,0,0,242.91.39Z"/><path class="cls-1" d="M1104.06,85.65c1.15-11.56,1.53-13.92,1.15-13.92-4.78-1.17-8.8-2.35-12.24-2.94-5.54-.78-9.55-.39-12.23,3.34a12.09,12.09,0,0,0,.77,4.7c2.1,4.7,4.77,9.6,11.46,13.91.2.2.39.2.77.4C1100.05,93.88,1103.29,90.94,1104.06,85.65Z"/><path class="cls-1" d="M1064.69,95.25c-7.26,4.51-7.45,6.86-13,8.43-9.17,2.94-18.72,3.73-18.92,4.12V117a5.93,5.93,0,0,0,5.93,5.92h49.69C1076,118,1071.19,89.77,1064.69,95.25Z"/><path class="cls-1" d="M1096.8,122.89h49.88a5.92,5.92,0,0,0,5.92-5.92v-3.49c-10.51,0-15.1-1-27.71-11.76C1115.72,97.8,1109.6,123.08,1096.8,122.89Z"/><path class="cls-1" d="M1093,0H1038.7a5.93,5.93,0,0,0-5.93,5.92V79.18c19.11-2.74,32.11-15.09,38.8-20.77,6.12-5.49,11.85-14.12,21.4-17.64a29.06,29.06,0,0,1,5.93-1.57c5.73-1.18,19.49,2.94,16.63,6.27-3.64,11.17-5.16,14.11-1.92,19.21,6.69,10.58,23.51,19.6,39,20.19V5.92A5.92,5.92,0,0,0,1146.68,0Z"/><path class="cls-1" d="M589.58,85.65c1.15-11.56,1.53-13.92,1.15-13.92-4.78-1.17-8.79-2.35-12.23-2.94-5.54-.78-9.56-.39-12.23,3.34a12.18,12.18,0,0,0,.76,4.7c2.11,4.7,4.78,9.6,11.47,13.91.19.2.38.2.76.4C585.57,93.88,588.82,90.94,589.58,85.65Z"/><path class="cls-1" d="M550.22,95.25c-7.27,4.51-7.46,6.86-13,8.43-9.17,2.94-18.73,3.73-18.92,4.12V117a5.92,5.92,0,0,0,5.92,5.92h49.69C561.49,118,556.71,89.77,550.22,95.25Z"/><path class="cls-1" d="M582.32,122.89H632.2a5.92,5.92,0,0,0,5.93-5.92v-3.49c-10.51,0-15.1-1-27.71-11.76C601.24,97.8,595.13,123.08,582.32,122.89Z"/><path class="cls-1" d="M578.5,0H524.22a5.92,5.92,0,0,0-5.92,5.92V79.18c19.11-2.74,32.11-15.09,38.79-20.77,6.12-5.49,11.85-14.12,21.41-17.64a28.8,28.8,0,0,1,5.92-1.57c5.74-1.18,19.5,2.94,16.63,6.27-3.63,11.17-5.16,14.11-1.91,19.21,6.69,10.58,23.51,19.6,39,20.19V5.92A5.92,5.92,0,0,0,632.2,0Z"/><path class="cls-1" d="M1361.3,107c-1.91-1-3.83-1.76-5.55-2.55-9.93-4.11-7.83-4.31-18.92,0-7.83,3.14-19.87,8.63-46.44,10v2.9a5.93,5.93,0,0,0,5.93,5.92h86.57c-.57-.59-1.15-1.37-1.72-2A59.43,59.43,0,0,0,1361.3,107Z"/><path class="cls-1" d="M1361.3,49.39a18.91,18.91,0,0,0-5.16-8.82c-4.59-6.66-13.57,1.18-19.12,7.25-3.63,3.92-6.11,7.45-6.49,10.19-1.34,13.92,20.06,12.94,30.77,5.3a3.32,3.32,0,0,1,1-.79C1362.06,62.72,1363,56.25,1361.3,49.39Z"/><path class="cls-1" d="M1319.82,82.32c-1.14-5.69,2.3-51.35,35.93-66.84-2.29-1.76-1.14-2.54,5.55-14.89V.2l-65,.18a5.92,5.92,0,0,0-5.91,5.92V85.06S1311.61,85.45,1319.82,82.32Z"/><path class="cls-1" d="M1395.12,86.83c2.3-1,1.15-5.49-1.33-11.37-3.06-7.25-8.6-16.66-12.62-23.32-2.1-3.53-3.82-6.08-4.2-7.26-3.44-6.86-3.82-1.37-3.82,2.94a35.79,35.79,0,0,1-1.72,9.8c-3.83,11-9,15.68-10.13,18.43a1.78,1.78,0,0,0,0,2c.38.78,1.72,1.56,4,2.54a120.72,120.72,0,0,0,15.86,6.28c5.16,1.37,9.94,2,12.62.78A10.21,10.21,0,0,1,1395.12,86.83Z"/><path class="cls-1" d="M1393.79.39h-27.72c5.93,5.69,10.9,10.78,15.1,15.49a121.28,121.28,0,0,1,12.62,15.87c8.6,12.54,12.42,23.52,16.62,37.24V6.32a5.92,5.92,0,0,0-5.92-5.93Z"/><path class="cls-1" d="M1393.79,120.15c-.77,1-1.53,1.95-2.49,3.13h13.19a5.92,5.92,0,0,0,5.92-5.92V86C1408.12,86.43,1409.84,98.78,1393.79,120.15Z"/><path class="cls-1" d="M676.35,82.32c-1-5.69,2.29-51.35,36.12-66.84-2.29-1.76-1.34-2.54,5.35-14.89L718,.2h-.19l-65,.18a5.91,5.91,0,0,0-5.9,5.92V85.06S668.13,85.45,676.35,82.32Z"/><path class="cls-1" d="M717.82,107c-1.91-1-3.82-1.76-5.35-2.55-10.13-4.11-8-4.31-19.11,0-7.84,3.14-19.88,8.63-46.44,10v2.9a5.92,5.92,0,0,0,5.92,5.92h86.58c-.58-.59-1.15-1.37-1.73-2A57.53,57.53,0,0,0,717.82,107Z"/><path class="cls-1" d="M717.82,49.39a18.91,18.91,0,0,0-5.16-8.82c-4.59-6.66-13.57,1.18-19.11,7.25-3.63,3.92-6.12,7.45-6.5,10.19-1.34,13.92,20.07,12.94,30.77,5.3a3.22,3.22,0,0,1,1-.79C718.58,62.72,719.73,56.25,717.82,49.39Z"/><path class="cls-1" d="M750.31,120.15c-.77,1-1.53,1.95-2.49,3.13h13a5.92,5.92,0,0,0,5.92-5.92V86C764.64,86.43,766.36,98.78,750.31,120.15Z"/><path class="cls-1" d="M751.65,86.83c2.29-1,1.33-5.49-1.34-11.37-3.06-7.25-8.6-16.66-12.62-23.32-2.1-3.53-3.82-6.08-4.2-7.26-3.44-6.86-3.82-1.37-3.82,2.94a29.64,29.64,0,0,1-1.72,9.8c-3.82,11.17-9,15.68-10.13,18.43a1.82,1.82,0,0,0,0,2c.38.78,1.72,1.56,4,2.54a121.27,121.27,0,0,0,15.86,6.28c5.36,1.37,9.94,2,12.62.78A9.6,9.6,0,0,1,751.65,86.83Z"/><path class="cls-1" d="M750.31.39H722.6c5.92,5.69,10.89,10.78,15.09,15.49A121.44,121.44,0,0,1,750.31,32c8.6,12.74,12.23,23.71,16.43,37.63V6.32A5.92,5.92,0,0,0,760.82.39Z"/><path class="cls-1" d="M964.36,111.72c-14.15-1.77-19.31-8.43-24.28-20.58-5.92-23.13-1-28.23-11.08-80-1.15-4.7.57-5.29,5.92-11.17H909.7a5.92,5.92,0,0,0-5.93,5.92V117a5.92,5.92,0,0,0,5.93,5.92h108a5.92,5.92,0,0,0,5.92-5.92v-7.61a278.39,278.39,0,0,1-41.85,3.34A123,123,0,0,1,964.36,111.72Z"/><path class="cls-1" d="M981.75,0H939.89c.38,1,4.59,4.9,5.55,10.58,4.2,22,0,57.23,10.51,67.23,4.2,5.29,11.65,7.25,25.8,7.06,1.91-.2,4-.2,6.3-.4,17.59-.78,35.74-2.74,35.74-3.52v-75A5.92,5.92,0,0,0,1017.87,0Z"/><path class="cls-1" d="M1232.87,92.71c-.38-.59-.77-1.38-1.15-2-2.86-5.09-4-4.89-7.45-1.17-1.91,2.35-7.07,5.68-12.42,9.8-15.87,12-36.51,14.31-50.08,14.5v3.29a5.93,5.93,0,0,0,5.93,5.92h108a5.92,5.92,0,0,0,5.92-5.92v-2.11C1282,112.7,1246.82,115.44,1232.87,92.71Z"/><path class="cls-1" d="M1231.72.2h-64a5.93,5.93,0,0,0-5.93,5.92V85.06c12.81-1.17,45.87,4.9,68-35.28a28.84,28.84,0,0,1,1.91-4.11c4.21-5.88,6.31,8.62,6.69,16.85,10.51,20.39,24.27,22.15,43.19,22.35V6.12A5.92,5.92,0,0,0,1275.68.2Zm.38,25.48-.38-.2a81.51,81.51,0,0,1-10.13-8.62c-2.67-2.75-3.63-3.73.77-8.63,1.14-1.17,6.69-6.47,9.36-6.66a1,1,0,0,1,1.34.59c3.82,3.92,6.5,7.25,11.28,12.34C1241.09,17.64,1235.93,23.13,1232.1,25.68Z"/><path class="cls-1" d="M1425.32,123.08h50.26c-1.91-36.65-1.53-44.29-7.26-76.24-4.78-26.06-5.54-22.93-2.29-30.18,2.67-3.14,10.7-15.29,13-16.46h-53.7a5.92,5.92,0,0,0-5.92,5.92v111A5.92,5.92,0,0,0,1425.32,123.08Z"/><path class="cls-1" d="M1483.42.2c6.69,16.07,11.27,60.75,4.58,100.54-2.29,10.59-4.2,16.07-8.21,22.34h53.32a5.92,5.92,0,0,0,5.92-5.92V6.12A5.92,5.92,0,0,0,1533.11.2Z"/><path class="cls-1" d="M1569.61.2h-15.48a5.92,5.92,0,0,0-5.92,5.92V94.47c7.07,2,3.24.59,7.45,1.76,4.39.79,9.17,1.57,13.95,2.16,23.51,2.74,50.64.39,74.34-26.46,9.75-14.5,8.22-17.83,1.15-28.42-5.54-8.43-6.12-6.86-13-14.89-5.92-3.14,7.46-16.47,13.57-23.52,11.85,7.84,17.2,29.39,16.06,48.8.19,16.46-5.35,45.67-50.65,69.18h51a5.92,5.92,0,0,0,5.92-5.92V6.12A5.92,5.92,0,0,0,1662.11.2Z"/><path class="cls-1" d="M1559.67,106.62c-5.73-3.92-10.13-7.25-11.46-8.82v19.36a5.92,5.92,0,0,0,5.92,5.92h37.08a151.62,151.62,0,0,1-21.6-10.38C1565.79,110.35,1562.54,108.39,1559.67,106.62Z"/><polygon class="cls-1" points="456.3 0 456.29 0 456.3 0 456.3 0"/><path class="cls-1" d="M491.73,103.63c-5.92-5.88-5.35.39-6.11,3.13-1.72,7.84-9.37,8-16.63,5.88a38.54,38.54,0,0,1-5.16-2c-6.88-2.94-11.66-5.88-19.49-5.88a48.26,48.26,0,0,0-10.7,1.57c-5.36,2.16-17.4,10.19-29.63,4.71-1.91-1.18-5.16-4.43-7.07-5.8-2.48,0-5-3.52-7.45-3.52V117a5.92,5.92,0,0,0,5.92,5.93h108a5.93,5.93,0,0,0,5.93-5.93V109.7C505.49,109.9,496.89,108.14,491.73,103.63Z"/><path class="cls-1" d="M503.39,0H456.3l1.34.59,11.27,12.35c-3.25,3.13-8.41,8.62-12.23,11.17l-10.51-8.82c-2.68-2.75-3.63-3.73.76-8.63,1.15-1.17,6.68-6.45,9.36-6.66H395.41a5.92,5.92,0,0,0-5.92,5.92V71.81c8.41,4.08,16.24,3.72,21.4-4.71,1.53-5.1,9.56-9.61,5.35-1.37-10.7,19.2,13.38,18.81,28.1,8.42,5-3.52,8.79-8.23,9.74-13.72.77-5.09,5-7,4.59-1-.19,8,2.87,17.06,10.32,20.39a16,16,0,0,0,4.4,1.17c5.73.59,13.76-8.23,13.95-18.81-.58-3.73,3.44-5.88,4.59.59,1.72,5.48,10.32,17.24,17.39,16.06V5.92A5.93,5.93,0,0,0,503.39,0ZM444,44.87l-10.51-8.82c-2.68-2.75-3.63-3.73.76-8.63,1.15-1.17,6.69-6.46,9.37-6.66l1.33.59,11.28,12.34C453,36.83,447.86,42.32,444,44.87Zm25.65,0-10.51-8.82c-2.68-2.75-3.64-3.73.76-8.63,1.15-1.17,6.69-6.46,9.36-6.66l1.34.59,11.28,12.34C478.67,36.83,473.51,42.32,469.69,44.87Z"/></g></g></svg>